<svg width="166" height="77" viewBox="0 0 166 77" fill="none" xmlns="http://www.w3.org/2000/svg">
<path d="M37.229 57.1299C37.7051 57.278 38.1388 57.4896 38.5303 57.7646C38.9217 58.0397 39.255 58.3941 39.53 58.8279C39.8051 59.2511 40.0167 59.7536 40.1648 60.3354C40.3129 60.9173 40.387 61.5838 40.387 62.335V63.4775C40.387 67.1592 38.5461 69 34.8645 69H22.4072V46.2437H34.2139C37.8955 46.2437 39.7363 48.0898 39.7363 51.782V52.1946C39.7363 53.4747 39.53 54.5221 39.1174 55.3367C38.7154 56.1407 38.0859 56.7384 37.229 57.1299ZM25.5969 59.0818V65.8103H34.7693C35.6262 65.8103 36.2451 65.6093 36.626 65.2073C37.0068 64.8053 37.1973 64.1758 37.1973 63.3188V61.5574C37.1973 60.6899 37.0068 60.0604 36.626 59.6689C36.2451 59.2775 35.6262 59.0818 34.7693 59.0818H25.5969ZM25.5969 49.4333V55.908H34.3408C35.1237 55.8762 35.6844 55.6646 36.0229 55.2732C36.3721 54.8712 36.5466 54.2576 36.5466 53.4324V51.9407C36.5466 51.0732 36.3562 50.4384 35.9753 50.0364C35.5945 49.6344 34.9756 49.4333 34.1187 49.4333H25.5969ZM45.2588 46.2437H48.512V65.7468H61.5088V46.2437H64.762V65.7468C64.762 66.1912 64.6773 66.6143 64.5081 67.0164C64.3388 67.4078 64.106 67.7516 63.8098 68.0479C63.5136 68.3441 63.1645 68.5768 62.7625 68.7461C62.371 68.9154 61.9531 69 61.5088 69H48.512C48.0676 69 47.6444 68.9154 47.2424 68.7461C46.851 68.5768 46.5072 68.3441 46.2109 68.0479C45.9147 67.7516 45.682 67.4078 45.5127 67.0164C45.3434 66.6143 45.2588 66.1912 45.2588 65.7468V46.2437ZM73.8708 46.2437V69H70.6177V46.2437H73.8708ZM82.9797 46.2437V65.7468H94.6753V69H79.7266V46.2437H82.9797ZM110.148 65.7468C111.661 65.7468 112.824 65.3395 113.639 64.5249C114.454 63.7103 114.861 62.5465 114.861 61.0337V54.21C114.861 53.4694 114.755 52.8082 114.543 52.2263C114.332 51.6444 114.02 51.1525 113.607 50.7505C113.205 50.3379 112.713 50.0258 112.131 49.8142C111.549 49.6026 110.888 49.4968 110.148 49.4968H101.832V65.7468H110.148ZM98.5791 69V46.2437H110.148C111.364 46.2437 112.459 46.4341 113.433 46.8149C114.417 47.1852 115.252 47.7195 115.94 48.4177C116.638 49.1054 117.172 49.9412 117.543 50.925C117.924 51.9089 118.114 53.0039 118.114 54.21V61.0337C118.114 62.2397 117.924 63.3347 117.543 64.3186C117.172 65.3025 116.638 66.1436 115.94 66.8418C115.252 67.5295 114.417 68.0637 113.433 68.4446C112.459 68.8149 111.364 69 110.148 69H98.5791ZM123.335 46.2437H139.918V49.4968H126.588V56.0032H137.966V59.2563H126.588V65.7468H139.918V69H123.335V46.2437ZM162.77 54.3687C162.77 57.5425 161.416 59.3516 158.707 59.7959L162.992 69H159.39L155.168 59.907H148.043V69H144.79V46.2437H157.247C160.929 46.2437 162.77 48.0898 162.77 51.782V54.3687ZM148.043 56.6538H157.073C157.94 56.6538 158.564 56.4634 158.945 56.0825C159.326 55.7017 159.517 55.0775 159.517 54.21V51.9407C159.517 51.0732 159.326 50.449 158.945 50.0681C158.564 49.6873 157.94 49.4968 157.073 49.4968H148.043V56.6538Z" fill="black"/>
<path d="M51.4922 38V2.99023H70.6572C76.3213 2.99023 79.1533 5.8304 79.1533 11.5107V16.4912C79.1533 22.1715 76.3213 25.0117 70.6572 25.0117H56.4971V38H51.4922ZM56.4971 20.0068H70.3887C71.7233 20.0068 72.6836 19.7139 73.2695 19.1279C73.8555 18.542 74.1484 17.5817 74.1484 16.2471V11.7549C74.1484 10.4202 73.8555 9.45996 73.2695 8.87402C72.6836 8.28809 71.7233 7.99512 70.3887 7.99512H56.4971V20.0068ZM86.1602 7.99512C86.1602 7.31152 86.2904 6.66862 86.5508 6.06641C86.8112 5.44792 87.1693 4.91895 87.625 4.47949C88.0807 4.02376 88.6097 3.66569 89.2119 3.40527C89.8304 3.12858 90.4814 2.99023 91.165 2.99023H110.159C110.843 2.99023 111.486 3.12858 112.088 3.40527C112.706 3.66569 113.243 4.02376 113.699 4.47949C114.155 4.91895 114.513 5.44792 114.773 6.06641C115.034 6.66862 115.164 7.31152 115.164 7.99512V12.5117H110.159V7.99512H91.165V32.9951H110.159V28.5029H115.164V32.9951C115.164 33.6787 115.034 34.3298 114.773 34.9482C114.513 35.5505 114.155 36.0794 113.699 36.5352C113.243 36.9909 112.706 37.349 112.088 37.6094C111.486 37.8698 110.843 38 110.159 38H91.165C90.4814 38 89.8304 37.8698 89.2119 37.6094C88.6097 37.349 88.0807 36.9909 87.625 36.5352C87.1693 36.0794 86.8112 35.5505 86.5508 34.9482C86.2904 34.3298 86.1602 33.6787 86.1602 32.9951V7.99512Z" fill="black"/>
</svg>
