<svg width="183" height="82" viewBox="0 0 183 82" fill="none" xmlns="http://www.w3.org/2000/svg">
<path d="M9.91016 62.6953C10.2031 62.7865 10.4701 62.9167 10.7109 63.0859C10.9518 63.2552 11.1569 63.4733 11.3262 63.7402C11.4954 64.0007 11.6257 64.3099 11.7168 64.668C11.8079 65.026 11.8535 65.4362 11.8535 65.8984V66.6016C11.8535 68.8672 10.7207 70 8.45508 70H0.789062V55.9961H8.05469C10.3203 55.9961 11.4531 57.1322 11.4531 59.4043V59.6582C11.4531 60.446 11.3262 61.0905 11.0723 61.5918C10.8249 62.0866 10.4375 62.4544 9.91016 62.6953ZM2.75195 63.8965V68.0371H8.39648C8.92383 68.0371 9.30469 67.9134 9.53906 67.666C9.77344 67.4186 9.89062 67.0312 9.89062 66.5039V65.4199C9.89062 64.8861 9.77344 64.4987 9.53906 64.2578C9.30469 64.0169 8.92383 63.8965 8.39648 63.8965H2.75195ZM2.75195 57.959V61.9434H8.13281C8.61458 61.9238 8.95964 61.7936 9.16797 61.5527C9.38281 61.3053 9.49023 60.9277 9.49023 60.4199V59.502C9.49023 58.9681 9.37305 58.5775 9.13867 58.3301C8.9043 58.0827 8.52344 57.959 7.99609 57.959H2.75195ZM15.8516 55.9961H17.8535V67.998H25.8516V55.9961H27.8535V67.998C27.8535 68.2715 27.8014 68.5319 27.6973 68.7793C27.5931 69.0202 27.4499 69.2318 27.2676 69.4141C27.0853 69.5964 26.8704 69.7396 26.623 69.8438C26.3822 69.9479 26.125 70 25.8516 70H17.8535C17.5801 70 17.3197 69.9479 17.0723 69.8438C16.8314 69.7396 16.6198 69.5964 16.4375 69.4141C16.2552 69.2318 16.112 69.0202 16.0078 68.7793C15.9036 68.5319 15.8516 68.2715 15.8516 67.998V55.9961ZM34.459 55.9961V70H32.457V55.9961H34.459ZM41.0645 55.9961V67.998H48.2617V70H39.0625V55.9961H41.0645ZM58.7832 67.998C59.7142 67.998 60.4303 67.7474 60.9316 67.2461C61.4329 66.7448 61.6836 66.0286 61.6836 65.0977V60.8984C61.6836 60.4427 61.6185 60.0358 61.4883 59.6777C61.3581 59.3197 61.166 59.0169 60.9121 58.7695C60.6647 58.5156 60.362 58.3236 60.0039 58.1934C59.6458 58.0632 59.2389 57.998 58.7832 57.998H53.666V67.998H58.7832ZM51.6641 70V55.9961H58.7832C59.5319 55.9961 60.2057 56.1133 60.8047 56.3477C61.4102 56.5755 61.9245 56.9043 62.3477 57.334C62.7773 57.7572 63.1061 58.2715 63.334 58.877C63.5684 59.4824 63.6855 60.1562 63.6855 60.8984V65.0977C63.6855 65.8398 63.5684 66.5137 63.334 67.1191C63.1061 67.7246 62.7773 68.2422 62.3477 68.6719C61.9245 69.0951 61.4102 69.4238 60.8047 69.6582C60.2057 69.8861 59.5319 70 58.7832 70H51.6641ZM67.8984 55.9961H78.1035V57.998H69.9004V62.002H76.9023V64.0039H69.9004V67.998H78.1035V70H67.8984V55.9961ZM93.166 60.9961C93.166 62.9492 92.3327 64.0625 90.666 64.3359L93.3027 70H91.0859L88.4883 64.4043H84.1035V70H82.1016V55.9961H89.7676C92.0332 55.9961 93.166 57.1322 93.166 59.4043V60.9961ZM84.1035 62.4023H89.6602C90.194 62.4023 90.5781 62.2852 90.8125 62.0508C91.0469 61.8164 91.1641 61.4323 91.1641 60.8984V59.502C91.1641 58.9681 91.0469 58.584 90.8125 58.3496C90.5781 58.1152 90.194 57.998 89.6602 57.998H84.1035V62.4023Z" fill="white"/>
<path d="M7.39062 49V6.98828H30.3887C37.1855 6.98828 40.584 10.3965 40.584 17.2129V23.1895C40.584 30.0059 37.1855 33.4141 30.3887 33.4141H13.3965V49H7.39062ZM13.3965 27.4082H30.0664C31.668 27.4082 32.8203 27.0566 33.5234 26.3535C34.2266 25.6504 34.5781 24.498 34.5781 22.8965V17.5059C34.5781 15.9043 34.2266 14.752 33.5234 14.0488C32.8203 13.3457 31.668 12.9941 30.0664 12.9941H13.3965V27.4082ZM51.9922 12.9941C51.9922 12.1738 52.1484 11.4023 52.4609 10.6797C52.7734 9.9375 53.2031 9.30273 53.75 8.77539C54.2969 8.22852 54.9316 7.79883 55.6543 7.48633C56.3965 7.1543 57.1777 6.98828 57.998 6.98828H80.791C81.6113 6.98828 82.3828 7.1543 83.1055 7.48633C83.8477 7.79883 84.4922 8.22852 85.0391 8.77539C85.5859 9.30273 86.0156 9.9375 86.3281 10.6797C86.6406 11.4023 86.7969 12.1738 86.7969 12.9941V18.4141H80.791V12.9941H57.998V42.9941H80.791V37.6035H86.7969V42.9941C86.7969 43.8145 86.6406 44.5957 86.3281 45.3379C86.0156 46.0605 85.5859 46.6953 85.0391 47.2422C84.4922 47.7891 83.8477 48.2188 83.1055 48.5312C82.3828 48.8438 81.6113 49 80.791 49H57.998C57.1777 49 56.3965 48.8438 55.6543 48.5312C54.9316 48.2188 54.2969 47.7891 53.75 47.2422C53.2031 46.6953 52.7734 46.0605 52.4609 45.3379C52.1484 44.5957 51.9922 43.8145 51.9922 42.9941V12.9941Z" fill="white"/>
</svg>
